<?xml version="1.0" encoding="UTF-8"?>
<!DOCTYPE svg PUBLIC "-//W3C//DTD SVG 1.1//EN" "http://www.w3.org/Graphics/SVG/1.1/DTD/svg11.dtd">
<svg xmlns="http://www.w3.org/2000/svg" version="1.1" width="225px" height="225px" style="shape-rendering:geometricPrecision; text-rendering:geometricPrecision; image-rendering:optimizeQuality; fill-rule:evenodd; clip-rule:evenodd" xmlns:xlink="http://www.w3.org/1999/xlink">
<g><path style="opacity:0.998" fill="#fec851" d="M 65.5,47.5 C 67.451,47.2267 68.951,47.8934 70,49.5C 71.1624,54.1253 71.4958,58.792 71,63.5C 69.3333,64.8333 67.6667,64.8333 66,63.5C 64.5278,58.1346 64.3611,52.8013 65.5,47.5 Z"/></g>
<g><path style="opacity:0.997" fill="#fec84f" d="M 95.5,55.5 C 97.9124,55.244 99.5791,56.244 100.5,58.5C 97.6908,62.4767 94.6908,66.31 91.5,70C 87.9124,70.6114 86.7458,69.1114 88,65.5C 90.2657,61.958 92.7657,58.6247 95.5,55.5 Z"/></g>
<g><path style="opacity:0.992" fill="#e8f0fc" d="M 55.5,98.5 C 56.4013,97.7095 57.0679,96.7095 57.5,95.5C 58.5754,94.4376 59.5754,94.4376 60.5,95.5C 58.451,99.7291 58.1177,104.062 59.5,108.5C 42.029,112.759 35.1957,123.759 39,141.5C 43.258,151.756 50.9247,157.422 62,158.5C 72.3202,157.962 82.8202,157.462 93.5,157C 118.506,141.828 143.839,127.162 169.5,113C 166.568,112.047 163.568,111.547 160.5,111.5C 164.079,84.9069 152.579,69.5736 126,65.5C 112.549,66.4719 102.049,72.4719 94.5,83.5C 88.2179,80.4661 81.7179,79.7994 75,81.5C 73.2716,80.6477 73.105,79.6477 74.5,78.5C 77.7473,77.7485 81.0806,77.2485 84.5,77C 83.944,76.6174 83.6107,76.1174 83.5,75.5C 87.0872,76.6051 90.5872,77.9384 94,79.5C 110.32,60.3828 129.153,57.5495 150.5,71C 161.371,81.1066 166.038,93.6066 164.5,108.5C 182.148,111.317 190.315,121.65 189,139.5C 186.392,151.774 178.892,158.941 166.5,161C 130.5,161.667 94.5,161.667 58.5,161C 43.5249,157.862 35.5249,148.695 34.5,133.5C 34.9287,119.31 41.7621,109.643 55,104.5C 55.4955,102.527 55.6621,100.527 55.5,98.5 Z"/></g>
<g><path style="opacity:0.998" fill="#fdc74e" d="M 39.5,62.5 C 44.2255,64.623 48.3921,67.623 52,71.5C 52.2174,74.6572 50.7174,75.8239 47.5,75C 45.1667,73.3333 42.8333,71.6667 40.5,70C 37.1274,67.7281 36.794,65.2281 39.5,62.5 Z"/></g>
<g><path style="opacity:1" fill="#f2f6fd" d="M 57.5,95.5 C 60.1667,86.8333 65.8333,81.1667 74.5,78.5C 73.105,79.6477 73.2716,80.6477 75,81.5C 81.7179,79.7994 88.2179,80.4661 94.5,83.5C 102.049,72.4719 112.549,66.4719 126,65.5C 152.579,69.5736 164.079,84.9069 160.5,111.5C 163.568,111.547 166.568,112.047 169.5,113C 143.839,127.162 118.506,141.828 93.5,157C 82.8202,157.462 72.3202,157.962 62,158.5C 50.9247,157.422 43.258,151.756 39,141.5C 35.1957,123.759 42.029,112.759 59.5,108.5C 58.1177,104.062 58.451,99.7291 60.5,95.5C 59.5754,94.4376 58.5754,94.4376 57.5,95.5 Z"/></g>
<g><path style="opacity:1" fill="#fbbd34" d="M 83.5,75.5 C 83.6107,76.1174 83.944,76.6174 84.5,77C 81.0806,77.2485 77.7473,77.7485 74.5,78.5C 65.8333,81.1667 60.1667,86.8333 57.5,95.5C 57.0679,96.7095 56.4013,97.7095 55.5,98.5C 51.2503,83.3425 56.917,74.3425 72.5,71.5C 76.6834,71.6697 80.35,73.003 83.5,75.5 Z"/></g>
<g><path style="opacity:0.994" fill="#fdc648" d="M 37.5,91.5 C 40.1873,91.3359 42.854,91.5026 45.5,92C 46.8602,93.9376 46.5268,95.6043 44.5,97C 39.6435,98.5078 34.8102,98.6744 30,97.5C 29.2195,96.0563 29.3861,94.723 30.5,93.5C 32.9823,92.9329 35.3157,92.2663 37.5,91.5 Z"/></g>
<g><path style="opacity:0.996" fill="#d3d6db" d="M 61.5,175.5 C 97.5015,175.333 133.502,175.5 169.5,176C 173.213,177.691 174.379,180.525 173,184.5C 172.097,185.701 170.931,186.535 169.5,187C 133.833,187.667 98.1667,187.667 62.5,187C 57.8848,185.923 56.3848,183.09 58,178.5C 59.1451,177.364 60.3117,176.364 61.5,175.5 Z"/></g>
<g><path style="opacity:0.998" fill="#d8dbe0" d="M 54.5,197.5 C 75.9961,198.332 97.6628,198.832 119.5,199C 115.007,201.079 110.674,203.412 106.5,206C 89.1667,206.333 71.8333,206.667 54.5,207C 90.8318,207.5 127.165,207.667 163.5,207.5C 127.002,208.664 90.3356,208.831 53.5,208C 50.7104,205.79 49.877,202.956 51,199.5C 51.8159,198.177 52.9826,197.511 54.5,197.5 Z"/></g>
<g><path style="opacity:0.956" fill="#d1d3d9" d="M 163.5,207.5 C 127.165,207.667 90.8318,207.5 54.5,207C 71.8333,206.667 89.1667,206.333 106.5,206C 110.674,203.412 115.007,201.079 119.5,199C 97.6628,198.832 75.9961,198.332 54.5,197.5C 90.331,196.336 126.331,196.169 162.5,197C 166.213,198.691 167.379,201.525 166,205.5C 165.292,206.381 164.458,207.047 163.5,207.5 Z"/></g>
</svg>
